<?xml version="1.0" encoding="UTF-8" standalone="no"?>
<svg
   width="32px"
   height="32px"
   viewBox="0 0 32 32"
   version="1.1"
   id="svg1"
   sodipodi:docname="favicon-32x32.svg"
   inkscape:version="1.4.2 (ebf0e940, 2025-05-08)"
   xmlns:inkscape="http://www.inkscape.org/namespaces/inkscape"
   xmlns:sodipodi="http://sodipodi.sourceforge.net/DTD/sodipodi-0.dtd"
   xmlns="http://www.w3.org/2000/svg"
   xmlns:svg="http://www.w3.org/2000/svg">
  <defs
     id="defs1" />
  <sodipodi:namedview
     id="namedview1"
     pagecolor="#ffffff"
     bordercolor="#000000"
     borderopacity="0.25"
     inkscape:showpageshadow="2"
     inkscape:pageopacity="0.0"
     inkscape:pagecheckerboard="0"
     inkscape:deskcolor="#d1d1d1"
     inkscape:zoom="2.298097"
     inkscape:cx="-11.313708"
     inkscape:cy="75.497247"
     inkscape:window-width="1080"
     inkscape:window-height="840"
     inkscape:window-x="1080"
     inkscape:window-y="1118"
     inkscape:window-maximized="0"
     inkscape:current-layer="Group" />
  <title
     id="title1">Group</title>
  <g
     id="Page-1"
     stroke="none"
     stroke-width="1"
     fill="none"
     fill-rule="evenodd">
    <g
       id="Group">
      <rect
         id="Rectangle"
         fill="#E5261F"
         x="0"
         y="0"
         width="32"
         height="32"
         rx="3" />
      <g
         style="fill:#ffffff"
         id="g7"
         transform="matrix(0.05351035,0,0,0.05351035,2.3680781,2.3681295)">
        <g
           id="g2"
           style="fill:#ffffff">
          <path
             d="M 509.012,113.243 448.258,52.488 c -3.983,-3.983 -10.442,-3.983 -14.424,0 L 169.957,316.368 78.164,224.575 c -1.912,-1.912 -4.507,-2.987 -7.212,-2.987 -2.705,0 -5.299,1.075 -7.212,2.987 L 2.987,285.328 c -3.983,3.984 -3.983,10.442 0,14.425 L 162.745,459.51 c 1.992,1.992 4.602,2.987 7.212,2.987 2.61,0 5.221,-0.995 7.212,-2.987 L 509.012,127.667 c 3.983,-3.983 3.983,-10.441 0,-14.424 z M 169.957,437.875 24.623,292.541 l 46.33,-46.331 91.793,91.793 c 3.982,3.983 10.441,3.983 14.424,0 l 263.877,-263.878 46.33,46.33 z"
             id="path1"
             style="fill:#ffffff"
             transform="matrix(0.99396197,0,0,0.99396197,0.2992268,0.29888796)" />
        </g>
        <g
           id="g4"
           transform="matrix(0.99396195,0,0,0.99396195,0.29922666,0.29888807)"
           style="fill:#ffffff">
          <g
             id="g3"
             style="fill:#ffffff">
            <path
               d="m 437.546,142.761 c -3.984,-3.983 -10.442,-3.983 -14.425,0 l -74.423,74.423 c -3.983,3.984 -3.983,10.442 0,14.425 1.991,1.992 4.602,2.987 7.212,2.987 2.61,0 5.22,-0.996 7.213,-2.987 l 74.423,-74.423 c 3.982,-3.984 3.983,-10.442 0,-14.425 z"
               id="path2"
               style="fill:#ffffff" />
          </g>
        </g>
        <g
           id="g6"
           transform="matrix(0.99396195,0,0,0.99396195,0.29922666,0.29888807)"
           style="fill:#ffffff">
          <g
             id="g5"
             style="fill:#ffffff">
            <path
               d="m 464.647,115.687 c -3.984,-3.983 -10.442,-3.983 -14.425,0 l -2.55,2.55 c -3.983,3.984 -3.983,10.442 0,14.425 1.991,1.992 4.602,2.987 7.212,2.987 2.61,0 5.221,-0.995 7.213,-2.987 l 2.55,-2.55 c 3.983,-3.984 3.983,-10.442 0,-14.425 z"
               id="path4"
               style="fill:#ffffff" />
          </g>
        </g>
      </g>
    </g>
  </g>
</svg>
